<svg width="104" height="31" viewBox="0 0 104 31" fill="none" xmlns="http://www.w3.org/2000/svg">
<g clip-path="url(#clip0)">
<path d="M57.2934 6.63546C57.2934 6.89465 57.2934 7.10201 57.2934 7.25753C57.2934 7.41305 57.2934 7.56857 57.2415 7.72408H49.976C49.9241 8.60536 50.2355 9.53847 50.8583 10.1605C51.5848 10.7826 52.519 11.0936 53.4531 10.99C53.7645 10.99 54.0758 10.99 54.3872 10.9381C54.6986 10.9381 55.01 10.8863 55.2695 10.8345C55.5289 10.7826 55.8403 10.7308 56.0998 10.6789C56.3593 10.6271 56.6188 10.5753 56.8263 10.5234V12.0268C56.2555 12.1823 55.7365 12.286 55.1657 12.3378C54.5429 12.4415 53.8683 12.4933 53.2455 12.4933C52.4671 12.4933 51.6886 12.3896 50.9621 12.1304C50.3912 11.9231 49.8203 11.5602 49.4052 11.0936C48.99 10.6271 48.6786 10.005 48.471 9.38295C48.2635 8.6572 48.1597 7.8796 48.1597 7.10201C48.1597 6.37626 48.2635 5.70235 48.471 5.02843C48.6267 4.40636 48.9381 3.83613 49.3533 3.31773C50.1836 2.28094 51.481 1.65887 52.8303 1.71071C53.505 1.71071 54.1277 1.81439 54.7505 2.07358C55.3213 2.28094 55.7884 2.64382 56.2036 3.05853C56.6188 3.47325 56.8782 4.04348 57.0858 4.56188C57.2415 5.28763 57.3453 5.96154 57.2934 6.63546ZM55.4251 6.37626C55.4251 5.96154 55.4251 5.49499 55.2695 5.13211C55.1657 4.76924 55.01 4.40636 54.7505 4.14716C54.491 3.88797 54.2315 3.62877 53.8683 3.47325C53.505 3.31773 53.0898 3.21405 52.6746 3.26589C52.3114 3.26589 51.9481 3.31773 51.5848 3.47325C51.2734 3.62877 50.9621 3.83613 50.7545 4.09532C50.495 4.40636 50.3393 4.7174 50.1836 5.08027C50.0279 5.49499 49.9241 5.9097 49.9241 6.37626H55.4251Z" fill="black"/>
<path d="M68.9701 6.63546C68.9701 6.89465 68.9701 7.10201 68.9701 7.25753C68.9701 7.41305 68.9701 7.56857 68.9182 7.72408H61.6008C61.5489 8.60536 61.8603 9.53847 62.483 10.1605C63.2096 10.7826 64.1437 11.0936 65.0778 10.99C65.3892 10.99 65.7006 10.99 66.012 10.9381C66.3233 10.9381 66.6347 10.8863 66.8942 10.8345C67.1537 10.7826 67.4651 10.7308 67.7245 10.6789C67.984 10.6271 68.2435 10.5753 68.4511 10.5234V12.0268C67.8802 12.1823 67.3613 12.286 66.7904 12.3378C66.1677 12.4415 65.493 12.4933 64.8703 12.4933C64.0918 12.4933 63.3134 12.3896 62.5868 12.1304C62.016 11.9231 61.4451 11.5602 61.0299 11.0936C60.6148 10.6271 60.3034 10.005 60.0958 9.38295C59.8882 8.6572 59.7844 7.8796 59.7844 7.10201C59.7844 6.37626 59.8882 5.70235 60.0958 5.02843C60.3034 4.40636 60.6148 3.83613 61.0299 3.31773C61.8603 2.28094 63.1577 1.65887 64.507 1.71071C65.1816 1.71071 65.8044 1.81439 66.4271 2.07358C66.9461 2.28094 67.4132 2.64382 67.7764 3.05853C68.1916 3.47325 68.4511 4.04348 68.6587 4.56188C68.9182 5.28763 69.0219 5.96154 68.9701 6.63546ZM67.1018 6.37626C67.1018 5.96154 67.1018 5.49499 66.9461 5.13211C66.8423 4.76924 66.6866 4.40636 66.4271 4.14716C66.1677 3.88797 65.9082 3.62877 65.5449 3.47325C65.1816 3.31773 64.7665 3.21405 64.3513 3.26589C63.988 3.26589 63.6247 3.31773 63.2615 3.47325C62.9501 3.62877 62.6387 3.83613 62.4311 4.09532C62.1717 4.40636 62.016 4.7174 61.8603 5.08027C61.7046 5.49499 61.6008 5.9097 61.6008 6.37626H67.1018Z" fill="black"/>
<path d="M80.2834 12.3896H71.8762V11.0937L77.7405 3.52509H72.0319V1.96991H79.9201V3.36958L74.2115 10.8345H80.3353L80.2834 12.3896Z" fill="black"/>
<path d="M92.3233 6.63546C92.3233 6.89465 92.3233 7.10201 92.3233 7.25753C92.3233 7.41305 92.3233 7.56857 92.2714 7.72408H84.9541C84.9022 8.60536 85.2135 9.53847 85.8363 10.1605C86.5628 10.7826 87.497 11.0936 88.4311 10.99C88.7425 10.99 89.0539 10.99 89.3652 10.9381C89.6766 10.8863 89.988 10.8863 90.2475 10.8345C90.507 10.7826 90.8183 10.7308 91.0778 10.6789C91.3373 10.6271 91.5968 10.5753 91.8044 10.5234V12.0268C91.2335 12.1823 90.7145 12.286 90.1437 12.3378C89.5209 12.4415 88.8463 12.4933 88.2235 12.4933C87.4451 12.4933 86.6666 12.3896 85.9401 12.1304C85.3692 11.9231 84.7984 11.5602 84.3832 11.0936C83.968 10.6271 83.6567 10.005 83.4491 9.38295C83.2415 8.6572 83.1377 7.8796 83.1377 7.10201C83.1377 6.37626 83.2415 5.70235 83.4491 5.02843C83.6567 4.40636 83.968 3.83613 84.3832 3.31773C85.2135 2.28094 86.511 1.65887 87.8603 1.71071C88.5349 1.71071 89.1577 1.81439 89.7804 2.07358C90.2994 2.28094 90.7664 2.64382 91.1297 3.05853C91.5449 3.47325 91.8044 4.04348 92.0119 4.56188C92.2195 5.28763 92.3233 5.96154 92.3233 6.63546ZM90.4551 6.37626C90.4551 5.96154 90.4032 5.54683 90.2994 5.13211C90.1956 4.76924 90.0399 4.40636 89.7804 4.14716C89.5209 3.88797 89.2614 3.62877 88.8982 3.47325C88.5349 3.31773 88.1197 3.21405 87.7046 3.26589C87.3413 3.26589 86.978 3.31773 86.6147 3.47325C86.3034 3.62877 85.992 3.83613 85.7844 4.09532C85.5249 4.40636 85.3692 4.7174 85.2135 5.08027C85.0579 5.49499 84.9541 5.9097 84.9541 6.37626H90.4551Z" fill="black"/>
<path d="M104 6.63546C104 6.89465 104 7.10201 104 7.25753C104 7.41305 104 7.56857 103.948 7.72408H96.6308C96.5789 8.60536 96.8903 9.53847 97.5649 10.1605C98.2915 10.7826 99.2256 11.0936 100.16 10.99C100.471 10.99 100.782 10.99 101.094 10.9381C101.405 10.9381 101.717 10.8863 101.976 10.8345C102.236 10.7826 102.547 10.7308 102.806 10.6789C103.066 10.6271 103.325 10.5753 103.533 10.5234V12.0268C102.962 12.1823 102.443 12.286 101.872 12.3378C101.25 12.4415 100.575 12.4933 99.9522 12.4933C99.1737 12.4933 98.3953 12.3896 97.6687 12.1304C97.0979 11.9231 96.527 11.5602 96.1118 11.0936C95.6967 10.6271 95.3853 10.005 95.1777 9.38295C94.9701 8.6572 94.8663 7.8796 94.8663 7.10201C94.8663 6.37626 94.9701 5.70235 95.1777 5.02843C95.3334 4.40636 95.6448 3.83613 96.0599 3.31773C96.8903 2.28094 98.1877 1.65887 99.537 1.71071C100.212 1.71071 100.834 1.81439 101.457 2.07358C101.976 2.28094 102.495 2.64382 102.858 3.05853C103.274 3.47325 103.533 4.04348 103.741 4.56188C103.896 5.28763 104 5.96154 104 6.63546ZM102.132 6.37626C102.132 5.96154 102.132 5.49499 101.976 5.13211C101.872 4.76924 101.717 4.40636 101.457 4.14716C101.198 3.88797 100.938 3.62877 100.575 3.47325C100.212 3.31773 99.7965 3.21405 99.3813 3.26589C99.018 3.26589 98.6547 3.31773 98.2915 3.47325C97.9801 3.62877 97.6687 3.83613 97.4611 4.09532C97.2017 4.40636 97.046 4.7174 96.8903 5.08027C96.7346 5.49499 96.6308 5.9097 96.6308 6.37626H102.132Z" fill="black"/>
<path d="M45.4611 21.3579C45.4611 22.1873 45.3573 23.0167 45.0459 23.7943C44.8383 24.4164 44.4231 25.0385 43.9561 25.505C43.489 25.9716 42.9181 26.3345 42.3473 26.5418C41.6726 26.801 40.998 26.9047 40.3233 26.9047C40.012 26.9047 39.6487 26.9047 39.3373 26.8528C38.974 26.801 38.6627 26.7492 38.3513 26.6973V31.0518H36.5349V16.3294H38.1437L38.2475 18.092C38.6627 17.4699 39.2335 16.9515 39.9082 16.5886C40.479 16.2776 41.1537 16.1739 41.8283 16.1739C42.3473 16.1739 42.9181 16.2776 43.3852 16.5368C43.8523 16.796 44.2155 17.1589 44.5269 17.5736C44.8383 18.092 45.0978 18.6104 45.2535 19.2324C45.3573 19.9064 45.4611 20.6321 45.4611 21.3579ZM43.5928 21.4097C43.5928 20.8913 43.5409 20.4248 43.489 19.9064C43.4371 19.4916 43.2814 19.0769 43.0738 18.7141C42.9181 18.403 42.7106 18.1438 42.3992 17.9365C42.0878 17.7291 41.7764 17.6773 41.4132 17.6773C41.1537 17.6773 40.9461 17.7291 40.7385 17.7809C40.479 17.8846 40.2195 17.9883 40.012 18.1438C39.7006 18.3512 39.4411 18.5585 39.1816 18.8177C38.8702 19.1288 38.5589 19.4916 38.2994 19.8545V24.9348C38.6108 25.0903 38.974 25.194 39.3373 25.2458C39.7006 25.3495 40.0639 25.3495 40.4271 25.3495C41.3094 25.4013 42.1397 25.0385 42.7106 24.3646C43.2814 23.7425 43.5928 22.7575 43.5928 21.4097Z" fill="black"/>
<path d="M57.0858 20.995C57.0858 21.2542 57.0858 21.4615 57.0858 21.6171C57.0858 21.7726 57.0858 21.9281 57.0339 22.0836H49.6647C49.6128 23.0167 49.9241 23.898 50.5469 24.5719C51.2735 25.194 52.2076 25.505 53.1417 25.4532C53.4531 25.4532 53.7645 25.4532 54.0758 25.4013C54.3872 25.4013 54.6986 25.3495 54.9581 25.2977C55.2176 25.2458 55.5289 25.194 55.7884 25.1421C56.0479 25.0903 56.3074 25.0385 56.515 24.9866V26.49C55.9441 26.6455 55.4251 26.7492 54.8543 26.8528C54.2315 26.9565 53.5569 27.0084 52.9341 27.0084C52.1557 27.0084 51.3772 26.9047 50.5988 26.6455C49.976 26.4381 49.4571 26.0753 48.99 25.6087C48.5748 25.1421 48.2116 24.5201 48.0559 23.898C47.8483 23.1722 47.7445 22.3947 47.7445 21.6171C47.7445 20.8913 47.8483 20.2174 48.0559 19.5435C48.2635 18.9214 48.5748 18.3512 48.99 17.8328C49.8723 16.796 51.1178 16.1739 52.519 16.2258C53.1936 16.2258 53.8164 16.3294 54.4391 16.5886C54.9581 16.796 55.477 17.1589 55.8403 17.5736C56.2555 18.0401 56.5669 18.5585 56.7226 19.1288C56.982 19.6472 57.0858 20.3211 57.0858 20.995ZM55.2176 20.7358C55.2176 20.3211 55.2176 19.8545 55.0619 19.4398C54.9581 19.0769 54.8024 18.714 54.5429 18.4548C54.2834 18.1957 54.024 17.9365 53.6607 17.7809C53.2974 17.6254 52.8822 17.5217 52.4671 17.5217C52.1038 17.5217 51.7405 17.5736 51.3772 17.7291C51.0659 17.8846 50.7545 18.092 50.5469 18.3512C50.2874 18.6622 50.1317 18.9732 49.976 19.3361C49.8204 19.7508 49.7166 20.1656 49.6647 20.6321L55.2176 20.7358Z" fill="black"/>
<path d="M68.8143 20.995C68.8143 21.2542 68.8143 21.4615 68.8143 21.6171C68.8143 21.7726 68.8143 21.9281 68.7624 22.0836H61.3932C61.3413 23.0167 61.6527 23.898 62.2754 24.5719C63.002 25.194 63.9361 25.505 64.8702 25.4532C65.1816 25.4532 65.493 25.4532 65.8044 25.4013C66.1157 25.3495 66.4271 25.3495 66.6866 25.2977C66.9461 25.2458 67.2575 25.194 67.5169 25.1421C67.7764 25.0903 68.0359 25.0385 68.2435 24.9866V26.49C67.6726 26.6455 67.1537 26.7492 66.5828 26.8528C65.96 26.9565 65.2854 27.0084 64.6626 27.0084C63.8842 27.0084 63.1058 26.9047 62.3273 26.6455C61.7046 26.4381 61.1856 26.0753 60.7185 25.6087C60.3034 25.1421 59.9401 24.5201 59.7844 23.898C59.5768 23.1722 59.473 22.3947 59.473 21.6171C59.473 20.8913 59.5768 20.2174 59.7844 19.5435C59.992 18.9214 60.3034 18.3512 60.7185 17.8328C61.6008 16.796 62.8463 16.1739 64.2475 16.2258C64.9221 16.2258 65.5449 16.3294 66.1676 16.5886C66.6866 16.796 67.2056 17.1589 67.5688 17.5736C67.984 18.0401 68.2954 18.5585 68.4511 19.1288C68.7105 19.6472 68.8143 20.3211 68.8143 20.995ZM66.8942 20.7358C66.8942 20.3211 66.8942 19.8545 66.7385 19.4398C66.6347 19.0769 66.479 18.714 66.2195 18.4548C65.96 18.1957 65.7006 17.9365 65.3373 17.7809C64.974 17.6254 64.5588 17.5217 64.1437 17.5217C63.7804 17.5217 63.4171 17.5736 63.0539 17.7291C62.7425 17.8846 62.483 18.092 62.2235 18.403C61.964 18.714 61.8084 19.0251 61.6527 19.388C61.497 19.8027 61.3932 20.2174 61.3932 20.6839L66.8942 20.7358Z" fill="black"/>
<path d="M80.1796 26.7492H71.7206V25.4532L77.6367 17.8328H71.8763V16.3294H79.8164V17.7291L74.004 25.2458H80.1796V26.7492Z" fill="black"/>
<path d="M92.2715 20.995C92.2715 21.2542 92.2715 21.4615 92.2715 21.6171C92.2715 21.7726 92.2715 21.9281 92.2196 22.0836H84.8503C84.7984 23.0167 85.1098 23.898 85.7326 24.5719C86.4591 25.194 87.3932 25.505 88.3274 25.4532C88.6388 25.4532 88.9501 25.4532 89.2615 25.4013C89.5729 25.3495 89.8843 25.3495 90.1437 25.2977C90.4032 25.2458 90.7146 25.194 90.9741 25.1421C91.2336 25.0903 91.493 25.0385 91.7006 24.9866V26.49C91.1298 26.6455 90.6108 26.7492 90.0399 26.8528C89.4172 26.9565 88.7425 27.0084 88.1198 27.0084C87.3413 27.0084 86.5629 26.9047 85.7845 26.6455C85.1617 26.4381 84.6427 26.0753 84.1757 25.6087C83.7605 25.1421 83.3972 24.5201 83.2415 23.898C83.034 23.1722 82.9302 22.3947 82.9302 21.6171C82.9302 20.8913 83.034 20.2174 83.2415 19.5435C83.4491 18.9214 83.7605 18.3512 84.1757 17.8328C85.0579 16.796 86.3034 16.1739 87.7046 16.2258C88.3793 16.2258 89.002 16.3294 89.6248 16.5886C90.1437 16.796 90.6627 17.1589 91.026 17.5736C91.4411 18.0401 91.7525 18.5585 91.9082 19.1288C92.1677 19.6472 92.2715 20.3211 92.2715 20.995ZM90.4032 20.7358C90.4032 20.3211 90.4032 19.8545 90.2475 19.4398C90.1437 19.0769 89.988 18.714 89.7286 18.4548C89.4691 18.1957 89.2096 17.9365 88.8463 17.7809C88.4831 17.6254 88.0679 17.5217 87.6527 17.5217C87.2894 17.5217 86.9262 17.5736 86.5629 17.7291C86.2515 17.8846 85.9402 18.092 85.7326 18.3512C85.4731 18.6622 85.3174 18.9732 85.1617 19.3361C85.006 19.7508 84.9022 20.1656 84.9022 20.6321L90.4032 20.7358Z" fill="black"/>
<path d="M104 20.995C104 21.2542 104 21.4615 104 21.6171C104 21.7726 104 21.9281 103.948 22.0836H96.5789C96.527 23.0167 96.8383 23.898 97.4611 24.5719C98.1876 25.194 99.1218 25.505 100.056 25.4532C100.367 25.4532 100.679 25.4532 100.99 25.4013C101.301 25.4013 101.613 25.3495 101.872 25.2977C102.132 25.2458 102.443 25.194 102.703 25.1421C102.962 25.0903 103.222 25.0385 103.429 24.9866V26.49C102.858 26.6455 102.339 26.7492 101.768 26.8528C101.146 26.9565 100.471 27.0084 99.8483 27.0084C99.0699 27.0084 98.2914 26.9047 97.513 26.6455C96.8902 26.4381 96.3713 26.0753 95.9042 25.6087C95.489 25.1421 95.1258 24.5201 94.9701 23.898C94.7625 23.1722 94.6587 22.3947 94.6587 21.6171C94.6587 20.8913 94.7625 20.2174 94.9701 19.5435C95.1777 18.9214 95.489 18.3512 95.9042 17.8328C96.7864 16.796 98.0319 16.1739 99.4331 16.2258C100.108 16.2258 100.731 16.3294 101.353 16.5886C101.872 16.796 102.391 17.1589 102.754 17.5736C103.17 18.0401 103.481 18.5585 103.637 19.1288C103.896 19.6472 104 20.3211 104 20.995ZM102.132 20.7358C102.132 20.3211 102.132 19.8545 101.976 19.4398C101.872 19.0769 101.717 18.714 101.457 18.4548C101.198 18.1957 100.938 17.9365 100.575 17.7809C100.212 17.6254 99.7964 17.5217 99.3812 17.5217C99.018 17.5217 98.6547 17.5736 98.2914 17.7291C97.98 17.8846 97.6687 18.092 97.4611 18.3512C97.2016 18.6622 97.0459 18.9732 96.8902 19.3361C96.7345 19.7508 96.6307 20.1656 96.6307 20.6321L102.132 20.7358Z" fill="black"/>
<path d="M13.3892 0H0V13.3746H13.3892V0Z" fill="#FCED17"/>
<path d="M26.7784 0H13.3892V13.3746H26.7784V0Z" fill="#58B847"/>
<path d="M13.3892 13.3746H0V26.7492H13.3892V13.3746Z" fill="#FFD62B"/>
<path d="M26.7784 13.3746H13.3892V26.7492H26.7784V13.3746Z" fill="#FCED17"/>
</g>
<defs>
<clipPath id="clip0">
<rect width="104" height="31" fill="white"/>
</clipPath>
</defs>
</svg>
